<svg width="45" height="45" viewBox="0 0 45 45" fill="none" xmlns="http://www.w3.org/2000/svg">
<path d="M45 42.5C45 43.8813 43.8813 45 42.5 45H2.5C1.11875 45 0 43.8813 0 42.5V2.5C0 1.11875 1.11875 0 2.5 0H42.5C43.8813 0 45 1.11875 45 2.5V42.5Z" fill="url(#paint0_linear_100_57)"/>
<path opacity="0.05" d="M23.75 39.9997V26.2497H18.75V18.7497H23.75V16.0772C23.75 9.77469 27.0825 6.30469 33.1313 6.30469C35.625 6.30469 36.9775 6.47969 37.6288 6.56469L38.7012 6.70344L38.75 7.77969V13.7497H34.2063C32.7963 13.7497 32.5 15.4722 32.5 16.9184V18.7497H38.4037L37.2437 26.2497H32.5V39.9997H23.75Z" fill="black"/>
<path opacity="0.07" d="M24.375 39.3747V25.6247H19.375V19.3747H24.375V16.0772C24.375 10.0922 27.4025 6.92969 33.1313 6.92969C35.595 6.92969 36.9187 7.10219 37.5562 7.18469L38.1012 7.25594L38.1262 7.80844V13.1247H34.2075C32.1788 13.1247 31.8762 15.5009 31.8762 16.9184V19.3747H37.6762L36.71 25.6247H31.875V39.3747H24.375Z" fill="black"/>
<path d="M34.2063 12.5H37.5V7.80746C36.885 7.72746 35.5863 7.55371 33.1313 7.55371C28.005 7.55371 25 10.1537 25 16.0775V20H20V25H25V38.75H31.25V25H36.1725L36.945 20H31.25V16.9187C31.25 14.5762 32.015 12.5 34.2063 12.5Z" fill="white"/>
<defs>
<linearGradient id="paint0_linear_100_57" x1="0.285001" y1="-1.38" x2="45.0963" y2="46.79" gradientUnits="userSpaceOnUse">
<stop stop-color="#0D61A9"/>
<stop offset="1" stop-color="#16528C"/>
</linearGradient>
</defs>
</svg>
