<svg width="300" height="300" viewBox="0 0 300 300" fill="none" xmlns="http://www.w3.org/2000/svg">
<rect width="300" height="300" rx="150" fill="#24292F"/>
<path d="M74.5 70L57 54L46.5 70L35 89.5L26.5 103.5L22 121V171.5L26.5 191.5L46.5 221L57 237.5L65.5 247L82.5 232L51 191.5L116.5 154.5V274.5H142V142.5L130 134L142 118V17.5H116.5V114L105 134L43 171.5V121L57 95.5L74.5 70Z" fill="#D9D9D9" stroke="black" stroke-width="3"/>
<path d="M180 17.5H157.5V235.5L177.5 258.5L199 276.5L228 260L253.5 235.5L272 208.5L281.5 179.5V150.5V124L272 97.5L261 77L242.5 89.5L253.5 109.5L261 131.5V179.5L238.5 218.5L222.5 235.5L202 248.5L180 227.5V17.5Z" fill="#D9D9D9" stroke="black" stroke-width="3"/>
</svg>
