<svg width="45" height="36" viewBox="0 0 45 36" fill="none" xmlns="http://www.w3.org/2000/svg">
<path d="M43.99 29.6119C43.5411 32.1011 41.6334 33.9977 39.2768 34.3533C35.5736 34.946 29.4015 35.6572 22.4439 35.6572C15.5985 35.6572 9.42643 34.946 5.61097 34.3533C3.25436 33.9977 1.34663 32.1011 0.897756 29.6119C0.448878 26.8855 0 22.8553 0 17.8767C0 12.8982 0.448878 8.86791 0.897756 6.14157C1.34663 3.6523 3.25436 1.75571 5.61097 1.4001C9.31421 0.807413 15.4863 0.0961914 22.4439 0.0961914C29.4015 0.0961914 35.4613 0.807413 39.2768 1.4001C41.6334 1.75571 43.5411 3.6523 43.99 6.14157C44.4389 8.86791 45 12.8982 45 17.8767C44.8878 22.8553 44.4389 26.8855 43.99 29.6119Z" fill="#FF3D00"/>
<path d="M17.9551 26.1742V9.5791L31.4214 17.8767L17.9551 26.1742Z" fill="white"/>
</svg>
