<svg width="55" height="45" viewBox="0 0 55 45" fill="none" xmlns="http://www.w3.org/2000/svg">
<rect x="2" y="2" width="51" height="41" rx="5" stroke="#F7F9F8" stroke-width="4"/>
<path d="M25.9476 29.9095L27.2809 31.4002L30.117 28.5794L28.7837 27.0887L25.9476 29.9095ZM3.27727 4.56321L25.9476 29.9095L28.7837 27.0887L6.11335 1.74245L3.27727 4.56321Z" fill="#F7F9F8"/>
<path d="M27.0065 27.1976L25.6794 28.6939L28.5272 31.5027L29.8544 30.0065L27.0065 27.1976ZM29.8544 30.0065L52.424 4.56047L49.5761 1.75162L27.0065 27.1976L29.8544 30.0065Z" fill="#F7F9F8"/>
<path d="M2.5983 39.5734L1.24797 41.0487L4.05137 43.902L5.4017 42.4266L2.5983 39.5734ZM5.4017 42.4266L23.328 22.8409L20.5246 19.9876L2.5983 39.5734L5.4017 42.4266Z" fill="#F7F9F8"/>
<path d="M36.594 20.9078L35.3021 19.381L32.389 22.1221L33.6809 23.6489L36.594 20.9078ZM33.6809 23.6489L49.5228 42.3706L52.4359 39.6294L36.594 20.9078L33.6809 23.6489Z" fill="#F7F9F8"/>
<rect x="27" y="28" width="1" height="3" rx="0.5" fill="#F7F9F8"/>
</svg>
